# xmcd
#
# Track frame offsets:
#	150
#	11761
#	27620
#	37809
#	50787
#	61089
#	76851
#	92858
#	110770
#	121725
#	132435
#	146586
#
# Disc length: 2172 seconds
# Revision: 0
# Processed by: cddbd v1.5.2PL0 Copyright (c) Steve Scherf et al.
# Submitted via: dBpowerAMP V12.0
#
DISCID=a2087a0c
DTITLE=Coburn - Coburn Street
DYEAR=2004
DGENRE=Country
TTITLE0=Big Red Moon
TTITLE1=You and I Are Sailors
TTITLE2=Rain
TTITLE3=Here Come the Train
TTITLE4=Memories
TTITLE5=Small Town in the Rockies
TTITLE6=Together Forever-More
TTITLE7=Mean Old Joe
TTITLE8=Sleepy River
TTITLE9=Every Morning
TTITLE10=Heading to Paris
TTITLE11=Beautiful Dreams
EXTD=
EXTT0=
EXTT1=
EXTT2=
EXTT3=
EXTT4=
EXTT5=
EXTT6=
EXTT7=
EXTT8=
EXTT9=
EXTT10=
EXTT11=
PLAYORDER=
